<?xml version="1.0" encoding="utf-8"?>
<svg viewBox="0 0 414.50111 500.00001" xmlns="http://www.w3.org/2000/svg">
  <defs>
    <linearGradient gradientUnits="userSpaceOnUse" x1="218.103" y1="-7.398" x2="218.103" y2="492.602" id="gradient-0">
      <stop offset="0" style="stop-color: rgb(72.941% 85.49% 33.333%)"/>
      <stop offset="1" style="stop-color: rgb(37.355% 50.439% 0%)"/>
    </linearGradient>
  </defs>
  <g id="g8" transform="matrix(0.4233889877796173, 0, 0, 0.44933101534843445, 88.13921356201172, 122.82691955566406)" style="">
    <path style="stroke-width: 2.73634; fill: url('#gradient-0');" d="m 218.7623,489.20119 c -42.53995,-6.93622 -61.39396,-16.29962 -57.50338,-28.55773 1.807,-5.69335 1.88497,-5.6847 9.95359,1.10462 9.1774,7.72225 29.69617,14.55471 48.5579,16.16904 6.97048,0.59662 10.2109,0.55146 7.20092,-0.10017 -33.60224,-7.27594 -56.09503,-15.52947 -56.09503,-20.58355 0,-1.46298 6.66144,-9.01864 14.80321,-16.79033 16.62054,-15.86509 19.69703,-23.70061 22.52339,-57.36516 1.38786,-16.53086 2.64265,-21.0176 5.56436,-19.89646 2.07481,0.79619 13.89833,2.00569 26.27446,2.68781 12.37613,0.68212 18.808,0.68793 14.29304,0.0138 -33.68427,-5.03625 -44.89426,-7.7663 -57.15855,-13.92017 -35.51554,-17.82171 -66.83276,-53.74988 -78.12918,-89.63343 -5.47978,-17.40675 -23.063814,-53.03824 -38.279832,-77.5685 -7.734121,-12.46845 -8.450285,-15.05657 -5.256261,-18.99557 2.48142,-3.06018 2.589018,-3.89446 0.32708,-2.53613 -4.084593,2.4529 -23.76119,-26.90083 -21.675584,-32.33581 0.936693,-2.44098 -0.313654,-3.14854 -3.904574,-2.2095 -7.503523,1.96223 -12.401868,-3.1344 -15.809419,-16.44937 C 32.823181,105.88386 26.535306,92.249403 20.475374,81.935745 14.415451,71.622122 10.130953,62.093736 10.954268,60.761579 11.777566,59.429428 18.133364,55.009514 25.07822,50.939558 l 12.627016,-7.399923 4.33371,6.556601 c 7.895991,11.946096 30.761558,38.278088 33.239053,38.278088 1.340038,0 4.457512,3.084551 6.927712,6.854555 3.830822,5.846581 3.940698,7.533361 0.74719,11.470641 -2.059263,2.53884 -2.343197,3.77682 -0.630986,2.75107 3.937006,-2.35857 26.594625,27.15992 24.679005,32.15195 -0.91704,2.38976 0.25337,3.18647 3.4523,2.34994 3.33949,-0.87328 8.57737,3.2303 16.89741,13.23818 21.23065,25.53764 31.50397,35.14647 34.439,32.21144 1.80616,-1.80616 5.40608,-1.60331 10.69333,0.6026 5.24059,2.18641 27.65187,3.50162 65.43372,3.83999 l 57.46321,0.51461 -56.09503,-1.72376 c -38.59795,-1.18608 -58.09568,-2.85185 -62.50902,-5.34043 l -6.41399,-3.61666 5.59624,-5.95692 c 8.52345,-9.07281 16.22112,-28.63866 19.80507,-50.3403 l 3.23146,-19.56716 9.88383,-1.05088 9.88383,-1.05085 -9.96853,-0.45996 c -15.43602,-0.71231 -18.05004,-13.852074 -2.86761,-14.414469 l 7.36346,-0.272775 -6.74105,-1.879315 c -3.9293,-1.095427 -7.52492,-4.69105 -8.62036,-8.620356 -4.33028,-15.532672 -5.63939,-15.029318 36.39035,-13.992087 33.9745,0.838441 83.50919,-2.822957 94.32096,-6.971815 2.79938,-1.074227 3.2555,0.754044 1.94033,7.777422 -0.94563,5.049973 -2.74502,10.308709 -3.99862,11.686086 -1.26285,1.387539 -0.29312,3.956621 2.17462,5.761069 6.3529,4.645347 2.67684,11.533701 -7.93606,14.87094 l -9.02183,2.83693 9.68757,-1.09202 9.68754,-1.092037 3.39436,18.205177 c 4.19351,22.49109 14.58733,44.49799 25.25634,53.47537 4.43808,3.73439 8.06925,7.38715 8.06925,8.11723 0,0.73009 -3.78213,2.1581 -8.40471,3.17338 -4.62256,1.0153 -7.81643,2.43425 -7.09745,3.15323 0.71898,0.71898 5.95081,0.0247 11.62626,-1.54197 8.56218,-2.36414 12.42366,-1.91824 22.68078,2.61897 29.1157,12.87927 38.6595,25.80885 38.65615,52.37003 -0.003,21.46019 -8.96303,41.57591 -31.01806,69.63464 -18.1019,23.02947 -37.04201,37.69705 -60.26274,46.66861 -10.40346,4.0195 -13.47391,5.9689 -8.06231,5.11872 8.60979,-1.35263 8.76576,-1.18049 10.44427,11.52552 3.12477,23.65395 7.39713,42.92403 11.12925,50.19744 4.67992,9.12057 18.728,21.03166 27.3603,23.19821 11.0701,2.77841 8.3097,10.55664 -7.05174,19.87055 -11.19293,6.78645 -8.8728,7.69747 4.02108,1.57896 4.92395,-2.3366 10.31463,-6.95417 11.97927,-10.26129 2.73934,-5.44226 2.96772,-5.11756 2.40625,3.42103 -0.53881,8.19264 -2.24066,10.2564 -12.93393,15.68374 -28.56208,14.4966 -105.95404,21.07615 -154.60339,13.14377 z m 74.56535,-8.8227 c -10.15868,-0.5265 -26.78195,-0.5265 -36.94063,0 -10.15868,0.52648 -1.84703,0.95725 18.47031,0.95725 20.31735,0 28.62899,-0.43071 18.47032,-0.95725 z m 36.9927,-2.50209 c -1.85258,-0.7495 -5.54664,-0.79517 -8.20903,-0.10155 -2.66236,0.69375 -1.1466,1.30703 3.36836,1.36279 4.51499,0.0556 6.69327,-0.51185 4.84067,-1.26142 z m 22.52278,-3.67781 c 6.97279,-2.99632 -0.22114,-2.99632 -9.5772,0 -5.49933,1.7612 -5.76765,2.20659 -1.36819,2.27126 3.00999,0.0445 7.93541,-0.97781 10.94539,-2.27126 z M 131.98108,216.28149 c 2.31073,-2.64296 3.49652,-5.51019 2.6351,-6.3716 -1.69165,-1.69164 -15.80165,20.97989 -15.62084,25.09909 0.0598,1.37277 2.0614,-1.19813 4.44699,-5.71308 2.38559,-4.51498 6.22803,-10.37146 8.53875,-13.01441 z m 14.61715,-15.03312 c 3.40367,-4.33999 3.30689,-4.43676 -1.0331,-1.03311 -2.63374,2.0655 -4.78861,4.22037 -4.78861,4.78859 0,2.25211 2.24706,0.8026 5.82171,-3.75548 z m 9.75066,-142.005537 c -10.41332,-1.846624 -11.45828,-6.346752 -4.77521,-20.564411 9.89757,-21.056168 20.83689,-31.9107837 36.5839,-36.3006246 17.82838,-4.9700788 77.17522,-9.7755803 120.72613,-9.7755803 h 33.24274 l 11.2502,11.629458 c 11.23886,11.6177629 22.72539,30.3031009 22.72539,36.9678349 0,10.505564 -49.22469,17.03535 -138.18534,18.330655 -40.63469,0.591659 -77.3402,0.462357 -81.56781,-0.287332 z" id="path845"/>
  </g>
</svg>